# xmcd
#
# Track frame offsets:
#	187
#	10747
#	24132
#	34865
#	45182
#	56072
#	69015
#	79462
#	91910
#	111490
#	121527
#	131492
#	143425
#	156242
#	169180
#	182450
#	195642
#	208270
#	222035
#	232777
#
# Disc length: 3251 seconds
#
# Revision: 3
# Processed by: cddbd v1.5.2PL0 Copyright (c) Steve Scherf et al.
# Submitted via: audiograbber 1.83.01
#
DISCID=f90cb114
DTITLE=Varied Artists - Country Classics
DYEAR=1992
DGENRE=Country
TTITLE0=Floyd Cramer - San Antionio Rose
TTITLE1=Claude King - Wolverton Mountain
TTITLE2=Porter Wagoner - Green Green Grass of Home
TTITLE3=Ferlin Husky - Wings of A Dove
TTITLE4=Faron Young - Hello Walls
TTITLE5=Kitty Wells - Makin' Believe
TTITLE6=Jim Reeves - He'll Have to go
TTITLE7=Eddy Arnold - You Don't Know Me
TTITLE8=Marty Robbins - El Paso
TTITLE9=Dave Dudley - Six Days on the Road
TTITLE10=Jimmy Newman - A Fallen Star
TTITLE11=Don Gibson - I Can't Stop Loving You
TTITLE12=Jim Reeves - Four Walls
TTITLE13=Bobby Helms - Fraulein
TTITLE14=Stuart Hamblen - This Old House
TTITLE15=Jerry Lee Lewis - You Win Again
TTITLE16=Bill Anderson - Still
TTITLE17=Lefty Frizzell - Saginaw Michigan
TTITLE18=Hank Locklin - Please Help Me I'm Falling
TTITLE19=Roger Miller - King Of The Road
EXTD=
EXTT0=Floyd Kramer
EXTT1=Claude King
EXTT2=Porter Wagoner
EXTT3=Ferlin huskey
EXTT4=Faron Young
EXTT5=Kitty Wells
EXTT6=Jim Reeves
EXTT7=Eddy Arnold
EXTT8=Marty Robins
EXTT9=Dave Dudley
EXTT10=Jimmy Newman
EXTT11=Don Gibson
EXTT12=Jim Reeves
EXTT13=Bobby Helms
EXTT14=Stuart Hamblen
EXTT15=Jerry Lee Lewis
EXTT16=Bill Anderson
EXTT17=Lefty Frizzel
EXTT18=Hank Locklin
EXTT19=Roger Miller
PLAYORDER=
